<svg width="171" height="41" viewBox="0 0 171 41" fill="none" xmlns="http://www.w3.org/2000/svg">
<path d="M0 6C0 5.16875 0.66875 4.5 1.5 4.5H4.34375C5.71875 4.5 6.9375 5.3 7.50625 6.5H33.1937C34.8375 6.5 36.0375 8.0625 35.6063 9.65L33.0438 19.1687C32.5125 21.1312 30.7313 22.5 28.7 22.5H10.6687L11.0063 24.2812C11.1438 24.9875 11.7625 25.5 12.4812 25.5H30.5C31.3313 25.5 32 26.1687 32 27C32 27.8313 31.3313 28.5 30.5 28.5H12.4812C10.3187 28.5 8.4625 26.9625 8.0625 24.8438L4.8375 7.90625C4.79375 7.66875 4.5875 7.5 4.34375 7.5H1.5C0.66875 7.5 0 6.83125 0 6ZM8 33.5C8 33.106 8.0776 32.7159 8.22836 32.3519C8.37913 31.988 8.6001 31.6573 8.87868 31.3787C9.15726 31.1001 9.48797 30.8791 9.85195 30.7284C10.2159 30.5776 10.606 30.5 11 30.5C11.394 30.5 11.7841 30.5776 12.1481 30.7284C12.512 30.8791 12.8427 31.1001 13.1213 31.3787C13.3999 31.6573 13.6209 31.988 13.7716 32.3519C13.9224 32.7159 14 33.106 14 33.5C14 33.894 13.9224 34.2841 13.7716 34.6481C13.6209 35.012 13.3999 35.3427 13.1213 35.6213C12.8427 35.8999 12.512 36.1209 12.1481 36.2716C11.7841 36.4224 11.394 36.5 11 36.5C10.606 36.5 10.2159 36.4224 9.85195 36.2716C9.48797 36.1209 9.15726 35.8999 8.87868 35.6213C8.6001 35.3427 8.37913 35.012 8.22836 34.6481C8.0776 34.2841 8 33.894 8 33.5ZM29 30.5C29.7956 30.5 30.5587 30.8161 31.1213 31.3787C31.6839 31.9413 32 32.7044 32 33.5C32 34.2956 31.6839 35.0587 31.1213 35.6213C30.5587 36.1839 29.7956 36.5 29 36.5C28.2044 36.5 27.4413 36.1839 26.8787 35.6213C26.3161 35.0587 26 34.2956 26 33.5C26 32.7044 26.3161 31.9413 26.8787 31.3787C27.4413 30.8161 28.2044 30.5 29 30.5Z" fill="#B88E2F"/>
<path d="M48.6168 19.91H60.0408V24.33H48.6168V19.91ZM49.0248 33H43.5168V9.2H61.5028V13.62H49.0248V33ZM72.144 33.272C70.6254 33.272 69.2654 32.9773 68.064 32.388C66.8854 31.7987 65.9674 30.9033 65.31 29.702C64.6527 28.478 64.324 26.9253 64.324 25.044V14.708H69.628V24.262C69.628 25.7807 69.9454 26.9027 70.58 27.628C71.2374 28.3307 72.1554 28.682 73.334 28.682C74.15 28.682 74.8754 28.512 75.51 28.172C76.1447 27.8093 76.6434 27.2653 77.006 26.54C77.3687 25.792 77.55 24.8627 77.55 23.752V14.708H82.854V33H77.822V27.968L78.74 29.43C78.128 30.6993 77.2214 31.6627 76.02 32.32C74.8414 32.9547 73.5494 33.272 72.144 33.272ZM87.7678 33V14.708H92.8338V19.876L92.1198 18.38C92.6638 17.088 93.5365 16.1133 94.7378 15.456C95.9392 14.776 97.4012 14.436 99.1238 14.436V19.332C98.8972 19.3093 98.6932 19.298 98.5118 19.298C98.3305 19.2753 98.1378 19.264 97.9338 19.264C96.4832 19.264 95.3045 19.6833 94.3978 20.522C93.5138 21.338 93.0718 22.6187 93.0718 24.364V33H87.7678ZM113.429 14.436C114.879 14.436 116.171 14.7307 117.305 15.32C118.461 15.8867 119.367 16.7707 120.025 17.972C120.682 19.1507 121.011 20.6693 121.011 22.528V33H115.707V23.344C115.707 21.8707 115.378 20.7827 114.721 20.08C114.086 19.3773 113.179 19.026 112.001 19.026C111.162 19.026 110.403 19.2073 109.723 19.57C109.065 19.91 108.544 20.4427 108.159 21.168C107.796 21.8933 107.615 22.8227 107.615 23.956V33H102.311V14.708H107.377V19.774L106.425 18.244C107.082 17.02 108.023 16.0793 109.247 15.422C110.471 14.7647 111.865 14.436 113.429 14.436ZM125.819 33V14.708H131.123V33H125.819ZM128.471 12.158C127.496 12.158 126.703 11.8747 126.091 11.308C125.479 10.7413 125.173 10.0387 125.173 9.2C125.173 8.36133 125.479 7.65867 126.091 7.092C126.703 6.52533 127.496 6.242 128.471 6.242C129.445 6.242 130.239 6.514 130.851 7.058C131.463 7.57933 131.769 8.25933 131.769 9.098C131.769 9.982 131.463 10.7187 130.851 11.308C130.261 11.8747 129.468 12.158 128.471 12.158ZM136.045 33V14.708H141.111V19.876L140.397 18.38C140.941 17.088 141.814 16.1133 143.015 15.456C144.217 14.776 145.679 14.436 147.401 14.436V19.332C147.175 19.3093 146.971 19.298 146.789 19.298C146.608 19.2753 146.415 19.264 146.211 19.264C144.761 19.264 143.582 19.6833 142.675 20.522C141.791 21.338 141.349 22.6187 141.349 24.364V33H136.045ZM159.126 33.272C157.177 33.272 155.443 32.864 153.924 32.048C152.428 31.232 151.238 30.1213 150.354 28.716C149.493 27.288 149.062 25.6673 149.062 23.854C149.062 22.018 149.493 20.3973 150.354 18.992C151.238 17.564 152.428 16.4533 153.924 15.66C155.443 14.844 157.177 14.436 159.126 14.436C161.053 14.436 162.775 14.844 164.294 15.66C165.813 16.4533 167.003 17.5527 167.864 18.958C168.725 20.3633 169.156 21.9953 169.156 23.854C169.156 25.6673 168.725 27.288 167.864 28.716C167.003 30.1213 165.813 31.232 164.294 32.048C162.775 32.864 161.053 33.272 159.126 33.272ZM159.126 28.92C160.01 28.92 160.803 28.716 161.506 28.308C162.209 27.9 162.764 27.322 163.172 26.574C163.58 25.8033 163.784 24.8967 163.784 23.854C163.784 22.7887 163.58 21.882 163.172 21.134C162.764 20.386 162.209 19.808 161.506 19.4C160.803 18.992 160.01 18.788 159.126 18.788C158.242 18.788 157.449 18.992 156.746 19.4C156.043 19.808 155.477 20.386 155.046 21.134C154.638 21.882 154.434 22.7887 154.434 23.854C154.434 24.8967 154.638 25.8033 155.046 26.574C155.477 27.322 156.043 27.9 156.746 28.308C157.449 28.716 158.242 28.92 159.126 28.92Z" fill="black"/>
</svg>
